OpenSim_Sub10_CSStiffKnee_GRF.mot
version=1
nRows=54
nColumns=19
inDegrees=no
endheader
time	lFx	lFy	lFz	lCOPx	lCOPy	lCOPz	rFx	rFy	rFz	rCOPx	rCOPy	rCOPz	lMx	lMy	lMz	rMx	rMy	rMz
0	2.14470886	396.59285002	27.89253206	0.79028969	0	-0.63244995	-4.33185886	286.04732672	-15.26905244	0.81715722	0	-0.36810320	0	3.05485830	0	0	0.40264128	0.00000000
0.01000000	1.83588568	396.74030609	27.65454310	0.79077342	0	-0.63260566	-3.99168091	284.82592716	-15.22950852	0.81763678	0	-0.36812074	0	3.16722401	0	0	0.75710699	0
0.02000000	1.63269145	396.78873495	27.46356760	0.79098418	0	-0.63270953	-3.83590394	282.99356389	-15.19814020	0.81788115	0	-0.36819125	0	3.23028453	0	0	0.94692498	0.00000000
0.03000000	1.54573764	396.60873033	27.31318389	0.79084535	0	-0.63271802	-3.88652497	280.80913506	-15.17224331	0.81793134	0	-0.36829534	0	3.25477278	0	0	1.01356498	0
0.04000000	1.55654950	396.28873971	27.20274110	0.79052068	0	-0.63265875	-4.05410672	278.54810923	-15.12161172	0.81773927	0	-0.36841104	0	3.26848831	0	0	1.04093928	-0.00000000
0.05000000	1.61335795	395.95439060	27.12194671	0.79015857	0	-0.63259129	-4.24736681	276.40459828	-15.02264715	0.81747729	0	-0.36852203	0	3.28114001	0	0	1.05064997	0
0.06000000	1.70501250	395.70579554	27.05208277	0.78975778	0	-0.63255736	-4.41348084	274.49623899	-14.85655037	0.81726094	0	-0.36861283	0	3.28453693	0	0	1.02978180	0
0.07000000	1.85679359	395.61297369	26.99236710	0.78933505	0	-0.63255894	-4.53036620	272.78912622	-14.63724234	0.81698205	0	-0.36873174	0	3.28205079	0	0	0.99830137	0
0.08000000	2.04434564	395.68099549	26.94076754	0.78883952	0	-0.63256027	-4.61722626	271.27766537	-14.39244693	0.81673804	0	-0.36889056	0	3.29013445	0	0	0.98080756	0.00000000
0.09000000	2.24153432	395.77129210	26.87384152	0.78826024	0	-0.63254999	-4.68806063	270.15262428	-14.15387572	0.81659652	0	-0.36905574	0	3.29816750	0	0	0.98004310	0.00000000
0.10000000	2.44786393	395.70215368	26.77897893	0.78749637	0	-0.63250077	-4.72405495	269.67936775	-13.97056303	0.81656691	0	-0.36920370	0	3.29498462	0	0	0.98207540	0
0.11000000	2.65249450	395.42045957	26.66399876	0.78654230	0	-0.63243506	-4.69389434	269.87005703	-13.88770798	0.81639491	0	-0.36935640	0	3.29169349	0	0	0.98564681	-0.00000000
0.12000000	2.87271663	394.92583991	26.52411842	0.78557792	0	-0.63240176	-4.58786606	270.50813846	-13.90843493	0.81589844	0	-0.36945533	0	3.30325734	0	0	1.00724850	0
0.13000000	3.11994378	394.23779681	26.35237484	0.78457173	0	-0.63238915	-4.43120253	271.31293085	-14.01659516	0.81524131	0	-0.36949825	0	3.33692831	0	0	1.03451492	0
0.14000000	3.38465674	393.42447365	26.16368862	0.78358261	0	-0.63235715	-4.25694964	272.01889196	-14.18736182	0.81453373	0	-0.36957304	0	3.39064592	0	0	1.04628627	0
0.15000000	3.63386894	392.53645219	25.99082628	0.78263661	0	-0.63226019	-4.08523153	272.54531006	-14.36193444	0.81385794	0	-0.36969854	0	3.47088265	0	0	1.04735311	0
0.16000000	3.84735452	391.58694610	25.84132815	0.78174321	0	-0.63211011	-3.88107978	272.95442334	-14.48976881	0.81325134	0	-0.36986353	0	3.55597435	0	0	1.04057754	0
0.17000000	3.99038167	390.55316442	25.70801379	0.78088802	0	-0.63194606	-3.62984730	273.30777143	-14.55956946	0.81255345	0	-0.37001239	0	3.61898548	0	0	1.02457210	0
0.18000000	4.07190730	389.42451368	25.57684958	0.78010754	0	-0.63179632	-3.36212181	273.63774612	-14.53640967	0.81183625	0	-0.37010637	0	3.64459025	0	0	1.00447089	0
0.19000000	4.09811963	388.17328371	25.41042357	0.77946233	0	-0.63167370	-3.11650564	273.87316404	-14.42744889	0.81108769	0	-0.37014079	0	3.64366261	0	0	0.99019866	-0.00000000
0.20000000	4.08049371	386.82657327	25.20764178	0.77897959	0	-0.63155888	-2.91742578	273.81355257	-14.31055307	0.81003885	0	-0.37022736	0	3.63265313	0	0	0.98437123	0
0.21000000	4.04241264	385.42877006	24.98172844	0.77867426	0	-0.63147721	-2.73028074	273.42344290	-14.22100145	0.80865921	0	-0.37043593	0	3.62591590	0	0	0.97272943	0
0.22000000	3.97998890	383.91577664	24.72230111	0.77851112	0	-0.63143178	-2.51579809	272.90006960	-14.11333284	0.80714788	0	-0.37074161	0	3.62765518	0	0	0.95222198	0.00000000
0.23000000	3.89638815	382.26427319	24.43280963	0.77833700	0	-0.63141838	-2.22517777	272.56093284	-13.95430043	0.80558414	0	-0.37110563	0	3.63535653	0	0	0.94305631	0
0.24000000	3.80876533	380.51986378	24.15689285	0.77799586	0	-0.63141142	-1.83059785	272.79261752	-13.74994121	0.80403604	0	-0.37149878	0	3.65089913	0	0	0.95631748	0
0.25000000	3.73038681	378.68703490	23.91046676	0.77746839	0	-0.63137904	-1.36259917	273.80745044	-13.54324534	0.80261466	0	-0.37187415	0	3.67378200	0	0	0.98106847	0
0.26000000	3.66944086	376.76299254	23.69607352	0.77702410	0	-0.63129848	-0.87190445	275.49041920	-13.42702767	0.80138790	0	-0.37225542	0	3.70646673	0	0	0.99907101	0
0.27000000	3.66164757	374.69011856	23.48473731	0.77689605	0	-0.63123030	-0.38860670	277.52572935	-13.44130911	0.80021468	0	-0.37263830	0	3.72425396	0	0	0.98341214	0
0.28000000	3.72183897	372.42134262	23.21551724	0.77705489	0	-0.63122475	0.11703897	279.51957275	-13.55759371	0.79907095	0	-0.37296671	0	3.72445830	0	0	0.92936144	0
0.29000000	3.81085208	369.98207540	22.87098413	0.77738520	0	-0.63127386	0.68878779	281.24059640	-13.75948130	0.79790929	0	-0.37326184	0	3.70752484	0	0	0.87071986	0
0.30000000	3.90450284	367.48521924	22.48852512	0.77774677	0	-0.63135591	1.31134565	282.71702543	-14.01843869	0.79658171	0	-0.37350215	0	3.66762090	0	0	0.83314724	0
0.31000000	3.97411138	364.97692570	22.10036428	0.77797522	0	-0.63141343	1.92870844	284.12701397	-14.29754213	0.79513662	0	-0.37363661	0	3.61716504	0	0	0.81085589	0
0.32000000	3.98315223	362.46894227	21.74984274	0.77804575	0	-0.63142120	2.49711674	285.60836080	-14.58134792	0.79379453	0	-0.37371246	0	3.58553107	0	0	0.78451723	0
0.33000000	3.93781392	359.95937359	21.48433790	0.77803188	0	-0.63137655	2.97692735	287.16600553	-14.83962591	0.79268198	0	-0.37380289	0	3.57621887	0	0	0.74349028	0
0.34000000	3.84819610	357.45486357	21.30260253	0.77810748	0	-0.63127977	3.37780603	288.81226986	-15.05767743	0.79182016	0	-0.37393217	0	3.59666978	0	0	0.69243019	0
0.35000000	3.68021627	355.07279087	21.18356390	0.77838663	0	-0.63119419	3.69249559	290.52203737	-15.23533636	0.79105583	0	-0.37405652	0	3.65390954	0	0	0.64784982	0
0.36000000	3.40700152	352.92024083	21.11003986	0.77890046	0	-0.63116797	3.91120421	292.32608723	-15.36240001	0.79022242	0	-0.37413736	0	3.74522615	0	0	0.62373481	0
0.37000000	2.96585075	350.87358805	21.02809128	0.77970250	0	-0.63119196	4.05574526	294.31713736	-15.46601567	0.78927277	0	-0.37417231	0	3.83914683	0	0	0.61957821	0
0.38000000	2.26324455	348.74223648	20.90155907	0.78096587	0	-0.63125828	4.14038745	296.57661869	-15.61019350	0.78832049	0	-0.37416025	0	3.88343648	0	0	0.62053243	0
0.39000000	1.37113127	346.33581789	20.68146508	0.78261993	0	-0.63134990	4.18465272	299.13884091	-15.84448259	0.78748085	0	-0.37410659	0	3.83932810	0	0	0.60583823	0
0.40000000	0.56647376	343.44295781	20.34718647	0.78398708	0	-0.63147056	4.20548266	301.80780191	-16.18894263	0.78683387	0	-0.37407429	0	3.68121872	0	0	0.57119154	0
0.41000000	0.17156937	340.16782102	19.96579651	0.78450304	0	-0.63160090	4.20453252	304.39793845	-16.61464262	0.78641576	0	-0.37404905	0	3.43503782	0	0	0.52678970	0
0.42000000	0.15548682	336.98666887	19.61358733	0.78435086	0	-0.63171431	4.21477940	306.89190380	-17.08234005	0.78626484	0	-0.37400946	0	3.16820838	0	0	0.46300370	0
0.43000000	0.22879979	334.28922602	19.35479914	0.78393105	0	-0.63176326	4.25812384	309.21458527	-17.56831904	0.78624116	0	-0.37394481	0	2.94489463	0	0	0.38649531	0
0.44000000	0.16646624	331.99645606	19.17772674	0.78346594	0	-0.63172192	4.32002926	311.37142610	-18.04136326	0.78623841	0	-0.37386991	0	2.78168625	0	0	0.32280131	-0.00000000
0.45000000	-0.04841718	329.66022502	18.99088858	0.78327453	0	-0.63163350	4.34336812	313.53394276	-18.46965582	0.78619798	0	-0.37379802	0	2.66892770	0	0	0.27919994	0.00000000
0.46000000	-0.31814189	326.98023724	18.72782398	0.78338356	0	-0.63160412	4.27131631	315.96311834	-18.84556317	0.78632316	0	-0.37370133	0	2.57975515	0	0	0.23339119	0
0.47000000	-0.54902609	324.09925641	18.41280585	0.78356882	0	-0.63168318	3.96394516	318.76575663	-19.20326244	0.78670020	0	-0.37357023	0	2.50459030	0	0	0.20354950	0
0.48000000	-0.67784558	321.30557458	18.09608400	0.78365711	0	-0.63180581	3.30229019	321.83053568	-19.53302693	0.78754134	0	-0.37338319	0	2.42863779	0	0	0.15869030	0
0.49000000	-0.65758028	318.93859706	17.81314291	0.78355129	0	-0.63187809	2.33852956	324.87726137	-19.83507281	0.78886314	0	-0.37315714	0	2.34932377	0	0	0.07857873	0
0.50000000	-0.49264210	317.30142885	17.60535400	0.78338055	0	-0.63188422	1.42241547	327.47759496	-20.18724763	0.79011653	0	-0.37293958	0	2.26546539	0	0	-0.00176185	-0.00000000
0.51000000	-0.20087422	316.62825633	17.50569379	0.78331292	0	-0.63186559	0.93168565	329.45956700	-20.63663645	0.79070749	0	-0.37271731	0	2.17500608	0	0	-0.06284776	0.00000000
0.52000000	0.17682559	316.95106818	17.50987741	0.78335167	0	-0.63186924	0.89696664	331.14893391	-21.17601380	0.79065718	0	-0.37243954	0	2.09668295	0	0	-0.11441104	0
0.53000000	0.51062779	318.22848646	17.61803432	0.78350584	0	-0.63193979	1.07555206	333.01113748	-21.77388214	0.79038054	0	-0.37214076	0	2.05095073	0	0	-0.17094273	0
